<svg width="17" height="18" viewBox="0 0 17 18" fill="none" xmlns="http://www.w3.org/2000/svg">
<path d="M8.01562 0.748047L7.75586 1.00781C7.57031 1.19336 7.57031 1.45312 7.75586 1.63867L14.3613 8.24414H0.445312C0.185547 8.24414 0 8.4668 0 8.68945V9.06055C0 9.32031 0.185547 9.50586 0.445312 9.50586H14.3613L7.75586 16.1484C7.57031 16.334 7.57031 16.5938 7.75586 16.7793L8.01562 17.0391C8.20117 17.2246 8.46094 17.2246 8.64648 17.0391L16.4766 9.20898C16.6621 9.02344 16.6621 8.76367 16.4766 8.57812L8.64648 0.748047C8.46094 0.5625 8.20117 0.5625 8.01562 0.748047Z" fill="#5E7488"/>
</svg>
