<svg width="26" height="27" viewBox="0 0 26 27" fill="none" xmlns="http://www.w3.org/2000/svg">
<path d="M1.42418 5.42945C2.01984 5.42884 2.59857 5.62767 3.06808 5.99424C3.5376 6.3608 3.87089 6.874 4.01481 7.45201L6.12243 15.9054C6.35418 16.8384 6.89183 17.6669 7.64955 18.2586C8.40727 18.8503 9.34138 19.1711 10.3028 19.1698H17.1108C18.2523 19.1684 19.3466 18.7143 20.1538 17.9071C20.961 17.0999 21.4151 16.0056 21.4165 14.8641V10.3785C21.4154 9.23629 20.9611 8.14123 20.1535 7.33359C19.3459 6.52595 18.2508 6.07171 17.1086 6.07056H7.56603C7.45508 6.06483 7.34414 6.08173 7.23994 6.12024C7.13574 6.15875 7.04046 6.21806 6.95991 6.29456C6.87936 6.37105 6.81521 6.46314 6.77138 6.56522C6.72755 6.66729 6.70495 6.77722 6.70495 6.88831C6.70495 6.9994 6.72755 7.10933 6.77138 7.2114C6.81521 7.31348 6.87936 7.40557 6.95991 7.48206C7.04046 7.55856 7.13574 7.61787 7.23994 7.65638C7.34414 7.69489 7.45508 7.71179 7.56603 7.70606H17.1086C17.8165 7.70692 18.4952 7.98853 18.9958 8.48911C19.4964 8.98968 19.778 9.66836 19.7788 10.3763V11.5353C19.0421 10.9597 18.1341 10.6469 17.1991 10.6467H13.2445C12.1267 10.6481 11.0551 11.0928 10.2647 11.8832C9.47429 12.6736 9.02961 13.7452 9.02816 14.863C9.03899 15.0726 9.12986 15.27 9.28203 15.4145C9.43421 15.559 9.63606 15.6396 9.84591 15.6396C10.0558 15.6396 10.2576 15.559 10.4098 15.4145C10.562 15.27 10.6528 15.0726 10.6637 14.863C10.6645 14.1795 10.9365 13.5242 11.4199 13.041C11.9034 12.5577 12.5588 12.286 13.2423 12.2855H17.1991C17.8831 12.286 18.5389 12.558 19.0226 13.0417C19.5063 13.5253 19.7783 14.1812 19.7788 14.8652C19.7777 15.5723 19.4962 16.2502 18.996 16.7501C18.4959 17.25 17.818 17.5313 17.1108 17.5321H10.3028C9.70691 17.5329 9.12798 17.334 8.6584 16.9671C8.18883 16.6003 7.85568 16.0868 7.71213 15.5085L5.60343 7.06494C5.37297 6.13088 4.83602 5.30104 4.07841 4.70807C3.32079 4.11511 2.38625 3.79325 1.42418 3.79395H0.760172C0.553608 3.80904 0.360411 3.90175 0.219397 4.05345C0.0783836 4.20514 0 4.40458 0 4.6117C0 4.81881 0.0783836 5.01825 0.219397 5.16995C0.360411 5.32164 0.553608 5.41435 0.760172 5.42945H1.42418Z" fill="#0054DC"/>
<path d="M10.7744 23.2027C11.6887 22.987 12.2549 22.0709 12.0391 21.1566C11.8233 20.2423 10.9072 19.6761 9.99296 19.8919C9.07868 20.1077 8.51245 21.0238 8.72824 21.938C8.94402 22.8523 9.86012 23.4185 10.7744 23.2027Z" fill="#0054DC"/>
<path d="M15.4001 21.5444C15.4001 21.8808 15.4998 22.2097 15.6867 22.4894C15.8736 22.7691 16.1393 22.9871 16.4501 23.1159C16.7609 23.2446 17.1029 23.2783 17.4328 23.2127C17.7628 23.147 18.0658 22.985 18.3037 22.7472C18.5416 22.5093 18.7036 22.2062 18.7692 21.8763C18.8349 21.5463 18.8012 21.2043 18.6724 20.8935C18.5437 20.5827 18.3257 20.3171 18.046 20.1302C17.7662 19.9433 17.4374 19.8435 17.101 19.8435C16.65 19.8438 16.2175 20.0231 15.8986 20.342C15.5797 20.6609 15.4004 21.0934 15.4001 21.5444ZM17.9831 21.5444C17.9813 21.6621 17.9557 21.7782 17.9078 21.8857C17.9557 21.7782 17.9813 21.6621 17.9831 21.5444C17.9832 21.3999 17.9477 21.2576 17.8798 21.13C17.812 21.0024 17.7137 20.8935 17.5938 20.8128C17.7137 20.8935 17.812 21.0024 17.8798 21.13C17.9477 21.2576 17.9832 21.3999 17.9831 21.5444Z" fill="#0054DC"/>
<path d="M13.3644 0.88599C11.7028 0.884769 10.0573 1.21237 8.52286 1.84993C6.98839 2.48748 5.59525 3.42238 4.42372 4.60075C4.85108 4.94936 5.21196 5.37229 5.48897 5.84918C7.43227 3.8595 10.0591 2.68267 12.8375 2.55701C15.6159 2.43135 18.3382 3.36625 20.4532 5.17239C22.5681 6.97853 23.9177 9.52092 24.2285 12.2847C24.5394 15.0485 23.7883 17.8272 22.1274 20.058C20.4665 22.2888 18.0198 23.8051 15.283 24.2998C12.5461 24.7944 9.72347 24.2305 7.38674 22.7222C5.05001 21.2139 3.3738 18.874 2.69754 16.1762C2.02127 13.4785 2.3955 10.6245 3.74444 8.19231L3.62232 7.69184C3.50618 7.22378 3.24191 6.80578 2.8689 6.50011C1.30492 8.84139 0.568171 11.6381 0.77568 14.4461C0.983188 17.254 2.12306 19.9121 4.01421 21.998C5.90536 24.084 8.43933 25.4781 11.2136 25.959C13.9878 26.44 16.8431 25.98 19.326 24.6523C21.8089 23.3246 23.777 21.2053 24.9175 18.631C26.058 16.0568 26.3056 13.1752 25.6209 10.4441C24.9362 7.71305 23.3585 5.28909 21.1384 3.55733C18.9184 1.82557 16.1833 0.885335 13.3677 0.88599H13.3644Z" fill="#0054DC"/>
</svg>
