<svg width="13" height="13" viewBox="0 0 13 13" fill="none" xmlns="http://www.w3.org/2000/svg">
<path d="M8.16211 6.875L11.9844 3.08984L12.7637 2.31055C12.875 2.19922 12.875 2.01367 12.7637 1.86523L11.9473 1.04883C11.7988 0.9375 11.6133 0.9375 11.502 1.04883L6.9375 5.65039L2.33594 1.04883C2.22461 0.9375 2.03906 0.9375 1.89062 1.04883L1.07422 1.86523C0.962891 2.01367 0.962891 2.19922 1.07422 2.31055L5.67578 6.875L1.07422 11.4766C0.962891 11.5879 0.962891 11.7734 1.07422 11.9219L1.89062 12.7383C2.03906 12.8496 2.22461 12.8496 2.33594 12.7383L6.9375 8.13672L10.7227 11.959L11.502 12.7383C11.6133 12.8496 11.7988 12.8496 11.9473 12.7383L12.7637 11.9219C12.875 11.7734 12.875 11.5879 12.7637 11.4766L8.16211 6.875Z" fill="#5E7488"/>
</svg>
