<svg width="15" height="16" viewBox="0 0 15 16" fill="none" xmlns="http://www.w3.org/2000/svg">
<path d="M15 7.9043C15 7.52344 14.7656 7.17188 14.4141 7.02539L12.0996 6L14.4141 5.00391C14.7656 4.85742 15 4.50586 15 4.125C15 3.77344 14.7656 3.42188 14.4141 3.27539L8.02734 0.492188C7.67578 0.345703 7.29492 0.345703 6.94336 0.492188L0.556641 3.27539C0.205078 3.42188 0 3.77344 0 4.125C0 4.50586 0.205078 4.85742 0.556641 5.00391L2.87109 6L0.556641 7.02539C0.205078 7.17188 0 7.52344 0 7.9043C0 8.25586 0.205078 8.60742 0.556641 8.75391L2.87109 9.75L0.556641 10.7754C0.205078 10.9219 0 11.2734 0 11.6543C0 12.0059 0.205078 12.3574 0.556641 12.5039L6.94336 15.2871C7.08984 15.3457 7.32422 15.375 7.4707 15.375C7.67578 15.375 7.85156 15.3457 8.02734 15.2871L14.4141 12.5039C14.7656 12.3574 14.9707 12.0059 14.9707 11.6543C14.9707 11.2734 14.7656 10.9219 14.4141 10.7754L12.0996 9.75L14.4141 8.75391C14.7656 8.60742 15 8.25586 15 7.9043ZM7.5 1.81055L12.8906 4.1543L7.5 6.49805L2.08008 4.125L7.5 1.81055ZM12.8906 11.6543L7.5 13.998L2.08008 11.625L4.6582 10.541L6.94336 11.5371C7.08984 11.5957 7.32422 11.625 7.5 11.625C7.67578 11.625 7.85156 11.5957 8.02734 11.5371L10.3125 10.541L12.8906 11.6543ZM7.5 10.248L2.08008 7.875L4.6582 6.79102L6.94336 7.78711C7.08984 7.8457 7.32422 7.875 7.5 7.875C7.67578 7.875 7.85156 7.8457 8.02734 7.78711L10.3125 6.79102L12.8906 7.9043L7.5 10.248Z" fill="#364254"/>
</svg>
