<svg width="15" height="14" viewBox="0 0 15 14" fill="none" xmlns="http://www.w3.org/2000/svg">
<path d="M14.5312 1.48438H8.4375V0.78125C8.4375 0.546875 8.20312 0.3125 7.96875 0.3125H7.03125C6.76758 0.3125 6.5625 0.546875 6.5625 0.78125V1.48438H0.46875C0.205078 1.48438 0 1.71875 0 1.95312V2.42188C0 2.68555 0.205078 2.89062 0.46875 2.89062H6.5625V3.59375C6.5625 3.85742 6.76758 4.0625 7.03125 4.0625H7.96875C8.20312 4.0625 8.4375 3.85742 8.4375 3.59375V2.89062H14.5312C14.7656 2.89062 15 2.68555 15 2.42188V1.95312C15 1.71875 14.7656 1.48438 14.5312 1.48438ZM14.5312 10.8594H4.6875V10.1562C4.6875 9.92188 4.45312 9.6875 4.21875 9.6875H3.28125C3.01758 9.6875 2.8125 9.92188 2.8125 10.1562V10.8594H0.46875C0.205078 10.8594 0 11.0938 0 11.3281V11.7969C0 12.0605 0.205078 12.2656 0.46875 12.2656H2.8125V12.9688C2.8125 13.2324 3.01758 13.4375 3.28125 13.4375H4.21875C4.45312 13.4375 4.6875 13.2324 4.6875 12.9688V12.2656H14.5312C14.7656 12.2656 15 12.0605 15 11.7969V11.3281C15 11.0938 14.7656 10.8594 14.5312 10.8594ZM14.5312 6.17188H12.1875V5.46875C12.1875 5.23438 11.9531 5 11.7188 5H10.7812C10.5176 5 10.3125 5.23438 10.3125 5.46875V6.17188H0.46875C0.205078 6.17188 0 6.40625 0 6.64062V7.10938C0 7.37305 0.205078 7.57812 0.46875 7.57812H10.3125V8.28125C10.3125 8.54492 10.5176 8.75 10.7812 8.75H11.7188C11.9531 8.75 12.1875 8.54492 12.1875 8.28125V7.57812H14.5312C14.7656 7.57812 15 7.37305 15 7.10938V6.64062C15 6.40625 14.7656 6.17188 14.5312 6.17188Z" fill="#364254"/>
</svg>
