<svg width="15" height="14" viewBox="0 0 15 14" fill="none" xmlns="http://www.w3.org/2000/svg">
<path d="M9.375 2.89062V2.42188C9.375 2.1875 9.14062 1.95312 8.90625 1.95312H7.03125C6.76758 1.95312 6.5625 2.1875 6.5625 2.42188V2.89062C6.5625 3.1543 6.76758 3.35938 7.03125 3.35938H8.90625C9.14062 3.35938 9.375 3.1543 9.375 2.89062ZM4.80469 10.625H3.51562V0.78125C3.51562 0.546875 3.28125 0.3125 3.04688 0.3125H2.57812C2.31445 0.3125 2.10938 0.546875 2.10938 0.78125V10.625H0.820312H0.791016C0.615234 10.625 0.439453 10.8008 0.439453 10.9766C0.439453 11.0645 0.498047 11.1816 0.556641 11.2402L2.54883 13.3496C2.60742 13.4082 2.72461 13.4668 2.8125 13.4668C2.87109 13.4668 2.98828 13.4082 3.04688 13.3496L5.03906 11.2402C5.09766 11.1816 5.15625 11.0645 5.15625 10.9766C5.15625 10.8008 4.98047 10.625 4.80469 10.625ZM13.125 8.51562V8.04688C13.125 7.8125 12.8906 7.57812 12.6562 7.57812H7.03125C6.76758 7.57812 6.5625 7.8125 6.5625 8.04688V8.51562C6.5625 8.7793 6.76758 8.98438 7.03125 8.98438H12.6562C12.8906 8.98438 13.125 8.7793 13.125 8.51562ZM15 11.3281V10.8594C15 10.625 14.7656 10.3906 14.5312 10.3906H7.03125C6.76758 10.3906 6.5625 10.625 6.5625 10.8594V11.3281C6.5625 11.5918 6.76758 11.7969 7.03125 11.7969H14.5312C14.7656 11.7969 15 11.5918 15 11.3281ZM11.25 5.70312V5.23438C11.25 5 11.0156 4.76562 10.7812 4.76562H7.03125C6.76758 4.76562 6.5625 5 6.5625 5.23438V5.70312C6.5625 5.9668 6.76758 6.17188 7.03125 6.17188H10.7812C11.0156 6.17188 11.25 5.9668 11.25 5.70312Z" fill="#364254"/>
</svg>
